<?xml version="1.0" encoding="UTF-8"?>
<svg id="Layer_1" data-name="Layer 1" xmlns="http://www.w3.org/2000/svg" viewBox="0 0 512 512">
  <defs>
    <style>
      .cls-1 {
        fill: #004b74;
      }

      .cls-2 {
        fill: #b4f1ff;
      }
    </style>
  </defs>
  <rect class="cls-1" x="0" width="512" height="512"/>
  <path class="cls-2" d="m391,98.5c12.43,0,22.5,10.07,22.5,22.5v270c0,12.43-10.07,22.5-22.5,22.5H121c-12.43,0-22.5-10.07-22.5-22.5V121c0-12.43,10.07-22.5,22.5-22.5h270Zm-270-22.5c-24.85,0-45,20.15-45,45v270c0,24.85,20.15,45,45,45h270c24.85,0,45-20.15,45-45V121c0-24.85-20.15-45-45-45H121Z"/>
  <path class="cls-2" d="m230.22,180.53c4.4,4.39,4.41,11.51.02,15.91,0,0-.01.01-.02.02l-59.56,59.53,59.56,59.53c4.4,4.4,4.4,11.53,0,15.93s-11.53,4.4-15.93,0l-67.5-67.5c-4.4-4.39-4.41-11.51-.02-15.91,0,0,.01-.01.02-.02l67.5-67.5c4.39-4.4,11.51-4.41,15.91-.02,0,0,.01.01.02.02Zm51.57,0c-4.4,4.39-4.41,11.51-.02,15.91,0,0,.01.01.02.02l59.56,59.53-59.56,59.53c-4.4,4.4-4.4,11.53,0,15.93s11.53,4.4,15.93,0l67.5-67.5c4.4-4.39,4.41-11.51.02-15.91,0,0-.01-.01-.02-.02l-67.5-67.5c-4.39-4.4-11.51-4.41-15.91-.02,0,0-.01.01-.02.02Z"/>
</svg>