<?xml version="1.0" encoding="UTF-8"?><svg id="Layer_1" xmlns="http://www.w3.org/2000/svg" viewBox="0 0 512 512"><defs><style>.cls-1{fill:#a5dbd9;}.cls-2{fill:#204080;}</style></defs><rect class="cls-2" width="512" height="512"/><path class="cls-1" d="m436.12,178.7c.03,31.39-14.3,61.08-38.91,80.57l-29.64-69.14,67.61-25.36c.62,4.57.94,9.21.94,13.94Z"/><path class="cls-1" d="m333.3,281.53c14.92,0,29.09-3.18,41.88-8.91l-30.46-71.06-22.85-57.12,87.42-34.96c-38.24-41.99-103.27-45.02-145.26-6.79-31.18,28.4-41.86,72.95-26.94,112.4l-139.75,116.44c-25.04,20.87-28.41,58.09-7.53,83.13,20.87,25.04,58.09,28.41,83.13,7.53,2.73-2.28,5.26-4.8,7.53-7.53l116.44-139.75c11.62,4.39,23.95,6.64,36.38,6.63Zm-29.52-99.65l-13.62,20.41,18.49-6.17c2.99-1.01,6.23.6,7.24,3.59.57,1.69.32,3.55-.68,5.03l-13.62,20.41,18.49-6.17,3.61,10.85-34.27,11.42c-2.99,1-6.23-.62-7.23-3.61-.56-1.67-.31-3.51.67-4.98l13.62-20.41-18.49,6.17c-2.99,1.01-6.23-.6-7.24-3.59-.57-1.69-.32-3.55.68-5.03l13.62-20.41-18.49,6.17-3.61-10.85,34.27-11.42c2.99-1,6.23.62,7.23,3.61.56,1.67.31,3.51-.67,4.98Zm-164.7,213.9c-12.62,0-22.85-10.23-22.85-22.85s10.23-22.85,22.85-22.85,22.85,10.23,22.85,22.85-10.23,22.85-22.85,22.85Z"/></svg>